<?xml version="1.0" encoding="UTF-8"?>
<svg width="32px" height="32px" viewBox="0 0 32 32" version="1.1" xmlns="http://www.w3.org/2000/svg" xmlns:xlink="http://www.w3.org/1999/xlink">
    <title>Desktop HD Copy 3</title>
    <g id="Desktop-HD-Copy-3" stroke="none" stroke-width="1" fill="none" fill-rule="evenodd">
        <path d="M14.2625698,4 L13.2736689,4.95593752 C12.6203274,5.587501 12.2513966,6.45725888 12.2513966,7.36595442 L12.2513966,13.4860335 L19.9553073,13.4860335 L19.9553073,7.36192873 C19.9553073,6.45560253 19.5882921,5.587904 18.9379384,4.95666145 L17.9523135,4 L26.9944134,4 L26.0055125,4.95593752 C25.352171,5.587501 24.9832402,6.45725888 24.9832402,7.36595442 L24.9832402,24.6340456 C24.9832402,25.5427411 25.352171,26.412499 26.0055125,27.0440625 L26.9944134,28 L17.9523135,28 L18.9379384,27.0433386 C19.5882921,26.412096 19.9553073,25.5443975 19.9553073,24.6380713 L19.9553073,18.5139665 L12.2513966,18.5139665 L12.2513966,24.6340456 C12.2513966,25.5427411 12.6203274,26.412499 13.2736689,27.0440625 L14.2625698,28 L5.2204699,28 L6.20609479,27.0433386 C6.85644855,26.412096 7.22346369,25.5443975 7.22346369,24.6380713 L7.22346369,7.36192873 C7.22346369,6.45560253 6.85644855,5.587904 6.20609479,4.95666145 L5.2204699,4 L14.2625698,4 Z" id="Path" fill="#BABABA"></path>
    </g>
</svg>