<?xml version="1.0" encoding="UTF-8"?>
<svg width="32px" height="32px" viewBox="0 0 32 32" version="1.1" xmlns="http://www.w3.org/2000/svg" xmlns:xlink="http://www.w3.org/1999/xlink">
    <title>favicon-light</title>
    <g id="Page-1" stroke="none" stroke-width="1" fill="none" fill-rule="evenodd">
        <g id="Desktop-HD-Copy-3" transform="translate(-567.000000, -389.000000)" fill="#777777" fill-rule="nonzero">
            <path d="M581.27053,421.119706 C586.22373,417.912597 588.433071,415.097469 588.433071,410.536249 C588.433071,409.467213 588.219264,407.828024 588.219264,402.554113 C588.219264,398.955025 588.361802,398.028527 589.003224,397.03076 C587.720381,396.923856 586.651345,396.567511 585.689212,395.961724 C584.384818,397.241721 583.113853,398.132584 581.876317,398.634314 L581.876317,394.643246 C581.876317,391.471772 583.15916,389.832584 585.083425,389.832584 C585.843628,389.832584 586.651345,390.212685 587.506573,390.972889 C586.514838,389.419944 585.653578,389.119706 585.083425,389.119706 C584.513273,389.119706 583.764947,389.084258 581.840682,390.972889 C579.70261,393.075326 578.59794,397.03076 578.59794,398.634314 L578.59794,409.574116 C578.59794,411.142036 578.526671,411.391477 577.422,412.317975 C578.099056,413.101935 579.025554,414.24224 579.845148,415.346911 C579.845148,415.346911 580.949819,414.50356 583.15916,412.816859 C582.090124,411.676554 581.876317,411.142036 581.876317,410.251172 L581.876317,398.955025 C583.747946,398.955025 585.007033,399.251979 585.653578,399.845888 C585.047791,401.057462 584.940887,402.839189 584.940887,405.369241 C584.940887,408.077466 585.190329,411.106401 585.190329,412.139803 C585.190329,416.986099 584.263831,418.803461 581.092357,420.76336 L581.27053,421.119706 Z" id="H-Copy"></path>
        </g>
    </g>
</svg>