<?xml version="1.0" encoding="UTF-8"?>
<svg width="32px" height="32px" viewBox="0 0 32 32" version="1.1" xmlns="http://www.w3.org/2000/svg" xmlns:xlink="http://www.w3.org/1999/xlink">
    <title>Desktop HD Copy 6</title>
    <g id="Desktop-HD-Copy-6" stroke="none" stroke-width="1" fill="none" fill-rule="evenodd">
        <path d="M15,3 C13.580108,4.34450827 12.7757676,6.21387009 12.7757676,8.16932296 L12.775,12.36 L19.215,12.36 L19.2151865,8.16276089 C19.2151865,6.30863789 18.4925124,4.53165209 17.2075399,3.20557837 L17,3 L27,3 C25.580108,4.34450827 24.7757676,6.21387009 24.7757676,8.16932296 L24.775,12.36 L27.8489023,12.36 L31,15.4575786 L27.8489023,18.6 L24.775,18.6 L24.7757676,23.830677 C24.7757676,25.6883573 25.5016848,27.4683403 26.7916564,28.7944422 L27,29 L17,29 C18.4144396,27.6551854 19.2151865,25.7889475 19.2151865,23.8372391 L19.215,18.6 L12.775,18.6 L12.7757676,23.830677 C12.7757676,25.6883573 13.5016848,27.4683403 14.7916564,28.7944422 L15,29 L5,29 C6.41443959,27.6551854 7.21518652,25.7889475 7.21518652,23.8372391 L7.215,18.6 L4.15109775,18.6 L1,15.4575786 L4.15109775,12.36 L7.215,12.36 L7.21518652,8.16276089 C7.21518652,6.30863789 6.49251242,4.53165209 5.20753986,3.20557837 L5,3 L15,3 Z" id="Combined-Shape" fill="#CCCCCC"></path>
    </g>
</svg>