<?xml version="1.0" encoding="UTF-8"?>
<svg width="32px" height="32px" viewBox="0 0 32 32" version="1.1" xmlns="http://www.w3.org/2000/svg" xmlns:xlink="http://www.w3.org/1999/xlink">
    <title>favicon-dark</title>
    <g id="Page-1" stroke="none" stroke-width="1" fill="none" fill-rule="evenodd">
        <g id="Desktop-HD-Copy-3" transform="translate(-510.000000, -389.000000)" fill="#CCCCCC" fill-rule="nonzero">
            <path d="M524.27053,421.119706 C529.22373,417.912597 531.433071,415.097469 531.433071,410.536249 C531.433071,409.467213 531.219264,407.828024 531.219264,402.554113 C531.219264,398.955025 531.361802,398.028527 532.003224,397.03076 C530.720381,396.923856 529.651345,396.567511 528.689212,395.961724 C527.384818,397.241721 526.113853,398.132584 524.876317,398.634314 L524.876317,394.643246 C524.876317,391.471772 526.15916,389.832584 528.083425,389.832584 C528.843628,389.832584 529.651345,390.212685 530.506573,390.972889 C529.514838,389.419944 528.653578,389.119706 528.083425,389.119706 C527.513273,389.119706 526.764947,389.084258 524.840682,390.972889 C522.70261,393.075326 521.59794,397.03076 521.59794,398.634314 L521.59794,409.574116 C521.59794,411.142036 521.526671,411.391477 520.422,412.317975 C521.099056,413.101935 522.025554,414.24224 522.845148,415.346911 C522.845148,415.346911 523.949819,414.50356 526.15916,412.816859 C525.090124,411.676554 524.876317,411.142036 524.876317,410.251172 L524.876317,398.955025 C526.747946,398.955025 528.007033,399.251979 528.653578,399.845888 C528.047791,401.057462 527.940887,402.839189 527.940887,405.369241 C527.940887,408.077466 528.190329,411.106401 528.190329,412.139803 C528.190329,416.986099 527.263831,418.803461 524.092357,420.76336 L524.27053,421.119706 Z" id="H"></path>
        </g>
    </g>
</svg>