<svg height="30" viewBox="0 0 30 30" width="30" xmlns="http://www.w3.org/2000/svg"><title>LinkedIn</title><g fill="#aaa" transform="translate(2 2)"><path d="m24.8272727-1.25h-23.65454543c-1.33803532 0-2.42272727 1.08469195-2.42272727 2.42272727v23.65454543c0 1.3380354 1.08469195 2.4227273 2.42272727 2.4227273h23.65454543c1.3380354 0 2.4227273-1.0846919 2.4227273-2.4227273v-23.65454543c0-1.33803532-1.0846919-2.42272727-2.4227273-2.42272727zm-.0772727 2.5v23.5h-23.5v-23.5z"/><path d="m11.8181818 9.38651136c.6472087 0 1.1795339.49187467 1.2435464 1.12219474l.0064536.1278053v9.4545454c0 .690356-.559644 1.25-1.25 1.25-.6472087 0-1.1795339-.4918746-1.2435464-1.1221947l-.0064536-.1278053v-9.4545454c0-.69035597.5596441-1.25000004 1.25-1.25000004z"/><path d="m7.09090909 9.38651136c.64720869 0 1.1795339.49187467 1.24354639 1.12219474l.00645361.1278053v9.4545454c0 .690356-.55964406 1.25-1.25 1.25-.64720869 0-1.1795339-.4918746-1.24354639-1.1221947l-.00645361-.1278053v-9.4545454c0-.69035597.55964406-1.25000004 1.25-1.25000004z"/><circle cx="7.090909" cy="5.909239" r="1.772727"/><path d="m15.9545455 9.3865025c2.9022502 0 5.2683916 2.2953548 5.3820866 5.1697269l.004277.2166367v5.3181819c0 .6903559-.5596441 1.25-1.25 1.25-.6472087 0-1.1795339-.4918747-1.2435464-1.1221948l-.0064536-.1278052v-5.3181819c0-1.5940946-1.292269-2.8863636-2.8863636-2.8863636-1.5940947 0-2.8863637 1.292269-2.8863637 2.8863636 0 .690356-.559644 1.25-1.25 1.25-.6903559 0-1.25-.559644-1.25-1.25 0-2.9748065 2.4115572-5.3863636 5.3863637-5.3863636z"/></g></svg>