<svg height="30" viewBox="0 0 30 30" width="30" xmlns="http://www.w3.org/2000/svg"><title>Instagram</title><path d="m642.003346 937.306748c-4.256553 0-7.689905 3.433352-7.689905 7.689906 0 4.256553 3.433352 7.689905 7.689905 7.689905 4.256554 0 7.689906-3.433352 7.689906-7.689905 0-4.256554-3.433352-7.689906-7.689906-7.689906zm0 12.689348c-2.750697 0-4.999442-2.242052-4.999442-4.999442s2.242052-4.999443 4.999442-4.999443 4.999443 2.242053 4.999443 4.999443-2.248745 4.999442-4.999443 4.999442zm9.798104-13.003904c0 .997211-.803123 1.793642-1.793642 1.793642-.997211 0-1.793642-.803123-1.793642-1.793642s.803123-1.793642 1.793642-1.793642 1.793642.803123 1.793642 1.793642zm5.09314 1.820413c-.113776-2.402678-.662577-4.530954-2.422755-6.28444-1.753486-1.753486-3.881762-2.302287-6.28444-2.422755-2.476296-.140547-9.898494-.140547-12.37479 0-2.395985.113776-4.524261.662577-6.28444 2.416062-1.760178 1.753486-2.302287 3.881763-2.422755 6.28444-.140547 2.476297-.140547 9.898494 0 12.374791.113776 2.402677.662577 4.530953 2.422755 6.284439 1.760179 1.753486 3.881762 2.302287 6.28444 2.422755 2.476296.140547 9.898494.140547 12.37479 0 2.402678-.113775 4.530954-.662576 6.28444-2.422755 1.753486-1.753486 2.302287-3.881762 2.422755-6.284439.140547-2.476297.140547-9.891802 0-12.368098zm-3.199108 15.025097c-.52203 1.311768-1.532626 2.322365-2.851087 2.851088-1.974345.783045-6.65923.602342-8.841049.602342-2.181818 0-6.873396.17401-8.841048-.602342-1.311768-.52203-2.322365-1.532627-2.851088-2.851088-.783045-1.974344-.602342-6.65923-.602342-8.841048 0-2.181819-.17401-6.873397.602342-8.841049.52203-1.311768 1.532627-2.322365 2.851088-2.851087 1.974344-.783046 6.65923-.602343 8.841048-.602343 2.181819 0 6.873397-.17401 8.841049.602343 1.311768.52203 2.322365 1.532626 2.851087 2.851087.783046 1.974345.602343 6.65923.602343 8.841049 0 2.181818.180703 6.873396-.602343 8.841048z" fill="#aaa" transform="translate(-627 -930)"/></svg>