<svg height="30" viewBox="0 0 30 30" width="30" xmlns="http://www.w3.org/2000/svg"><title>GitHub</title><path d="m721.999932 930c-7.356177.000305-13.626518 5.335333-14.804881 12.596517-1.178364 7.261185 3.083052 14.305333 10.061616 16.631916.749928.131268 1.031151-.318674 1.031151-.712431 0-.356201-.018763-1.537353-.018763-2.793467-3.768404.693668-4.743311-.918617-5.043282-1.762287-.332855-.820534-.860504-1.547676-1.537353-2.118592-.524949-.281223-1.274878-.974906-.018763-.993624.973416.105626 1.834124.67941 2.306044 1.537307.414307.744276 1.10779 1.293064 1.927364 1.525219.819574.232156 1.697845.128589 2.440937-.287837.064931-.762493.404751-1.475406.956189-2.005998-3.33718-.374964-6.824346-1.66865-6.824346-7.40554-.021077-1.490639.528977-2.932853 1.537352-4.030864-.458533-1.295546-.404881-2.717314.149986-3.974619 0 0 1.256085-.393727 4.124605 1.537353 2.454197-.674976 5.045084-.674976 7.499281 0 2.868445-1.949813 4.124605-1.537353 4.124605-1.537353.554942 1.257288.608595 2.679084.149985 3.974619 1.011412 1.096132 1.561946 2.539605 1.537353 4.030864 0 5.755653-3.505944 7.030576-6.843094 7.40554.724269.734087 1.09374 1.74671 1.012403 2.774734 0 2.006088-.018763 3.618373-.018763 4.124605 0 .393727.281223.862417 1.031151.712431 6.965701-2.345373 11.207558-9.390782 10.021124-16.644343-1.186433-7.253561-7.451952-12.580325-14.801901-12.58415z" fill="#aaa" transform="translate(-707 -930)"/></svg>